<svg t="1653434809854" class="icon" viewBox="0 0 1024 1024" version="1.1" xmlns="http://www.w3.org/2000/svg" p-id="12369" width="16" height="16"><path d="M936.32 448L832 192h64V128H576V64H512v64H192v64h64L152.32 448H128v64h9.6c9.984 31.872 30.272 59.52 57.6 78.72a158.08 158.08 0 0 0 185.6 0A156.16 156.16 0 0 0 439.04 512H448V448h-28.8L312.32 192H512v512H384l-24.96 11.52-128 160.64 24.96 51.84h576l24.96-51.84-128-160.64L704 704H576V192h200.32l-106.88 256H640v64h9.6a158.72 158.72 0 0 0 301.44 0H960V448h-23.68zM334.08 544.64a97.28 97.28 0 0 1-46.08 12.16 92.8 92.8 0 0 1-45.44-12.16A94.08 94.08 0 0 1 208 512h160a97.28 97.28 0 0 1-33.92 32.64zM350.08 448h-128l64-153.6 64 153.6z m338.56 320L768 864H320L399.36 768h289.28z m113.92-472.32l64 153.6h-128l64-153.6z m43.52 250.24a90.24 90.24 0 0 1-46.08 12.16 86.4 86.4 0 0 1-45.44-12.16 99.2 99.2 0 0 1-34.56-33.92h160a87.68 87.68 0 0 1-33.92 33.92z" p-id="12370" fill="#ffffff"></path></svg>